<svg xmlns="http://www.w3.org/2000/svg" width="40" height="40" viewBox="0 0 30 30"><path fill="#fff" d="M23.786 10.982c-.184-.433-.273-1.24-.268-1.714.009-.781.212-1.737.613-2.411.871-1.46 2.611-2.164 4.208-2.486.666-.134.916-.193 1.607-.193-.122 1.506-.248 3.061-1.042 4.393-.787 1.321-2.005 1.97-3.351 2.588l-1.071.52c.037-.791.504-1.505.928-2.143.597-.896 1.209-1.798 1.964-2.571-1.331.888-2.156 1.737-2.979 3.107-.182.304-.362.584-.504.911zM.139 4.447c.248-.105 1.146-.054 1.468-.054h6.75c1.322 0 2.361-.034 3.643.431 1.496.544 2.846 1.504 3.672 2.89.763 1.28.83 2.31.828 3.75-.002 1.228-.358 2.692-.988 3.75-.972 1.631-2.596 2.587-4.422 2.946-.322.063-.913.157-1.232.161H7.394c-.227.001-.555.016-.747.146-.28.191-.27.463-.271.764v6.054c-.003.146-.002.293-.124.396-.121.101-.317.085-.466.086H.482c-.114-.002-.249.003-.335-.086-.111-.112-.093-.354-.093-.502V4.875c.001-.187-.026-.272.086-.427Zm27.29 2.464h-.054l.054.054zM8.411 12.107c.054-.29.259-.727.375-1.018l.782-1.929.265-.696c.037-.088.072-.196 0-.267-.087-.067-.304-.055-.404-.055H5.786c-.12 0-.31-.011-.412.055-.19.123-.288.836-.344 1.07l-.861 3.696-.199.857c-.022.111-.078.296 0 .396.077.106.304.086.424.086h2.089l-.987 3.482c-.116.405-.393 1.106-.352 1.5.257-.132.411-.37.594-.589l.849-1.018 3.152-3.804.982-1.179c.082-.1.295-.328.269-.466-.029-.152-.32-.124-.434-.124zm14.304 9.429 1.651-4.5.422-1.232.588-1.661.393-1.125c.088-.264.173-.575.393-.761.204-.172.423-.2.679-.204h1.875c.209.001.574-.023.662.221.063.175-.143.617-.211.797l-.737 1.982-3.14 8.25-.517 1.339c-.255.642-.334 1.115-1.146 1.125h-2.143c-.245-.001-.43.012-.641-.142-.278-.202-.343-.516-.449-.822l-.52-1.393-1.862-4.929-1.187-3.107c-.127-.434.022-.769.159-1.179a10 10 0 0 0 .332-1.232c.041-.215.052-.68.22-.817.176-.144.913-.096 1.162-.093.916.011 1.009.563 1.25 1.286l1.266 3.911 1.393 4.286z"/></svg>